<?xml version="1.0" standalone="no"?>
<!DOCTYPE svg PUBLIC "-//W3C//DTD SVG 20010904//EN"
 "http://www.w3.org/TR/2001/REC-SVG-20010904/DTD/svg10.dtd">
<svg version="1.0" xmlns="http://www.w3.org/2000/svg"
 width="360.000000pt" height="360.000000pt" viewBox="0 0 360.000000 360.000000"
 preserveAspectRatio="xMidYMid meet">
<metadata>
Created by potrace 1.14, written by Peter Selinger 2001-2017
</metadata>
<g transform="translate(0.000000,360.000000) scale(0.100000,-0.100000)"
fill="#000000" stroke="none">
<path d="M540 3479 c-30 -5 -91 -27 -135 -48 -148 -73 -259 -222 -285 -381
-13 -87 -13 -2398 0 -2495 31 -213 217 -402 430 -435 88 -13 2412 -13 2500 0
210 33 396 219 430 430 13 88 14 2410 0 2500 -23 146 -133 301 -261 370 -131
69 -22 64 -1389 66 -687 1 -1259 -2 -1290 -7z m1323 -1049 c131 -19 133 -25
129 -325 -3 -206 -1 -234 15 -265 27 -52 61 -52 111 -2 79 79 180 250 275 465
17 38 34 60 50 66 14 5 121 10 238 10 241 1 262 -3 267 -57 6 -63 -47 -154
-248 -423 -64 -86 -120 -167 -124 -182 -11 -45 12 -77 147 -211 211 -208 264
-307 194 -360 -26 -20 -42 -21 -234 -24 -204 -3 -205 -3 -259 23 -39 19 -82
57 -161 142 -122 130 -151 150 -192 133 -39 -16 -59 -57 -72 -147 -17 -124
-17 -123 -54 -139 -74 -31 -285 -12 -423 38 -276 100 -492 354 -768 902 -76
152 -114 238 -112 255 5 46 34 52 245 49 228 -3 216 3 281 -146 103 -233 257
-448 316 -440 42 6 60 69 64 224 6 218 -17 291 -99 315 -21 7 -39 18 -39 25 0
30 71 65 155 77 60 8 232 6 298 -3z"/>
</g>
</svg>
