<svg width="56" height="49" viewBox="0 0 56 49" fill="none" xmlns="http://www.w3.org/2000/svg">
<path fill-rule="evenodd" clip-rule="evenodd" d="M55.0075 7.79793C55.0017 6.43107 54.6311 5.09055 53.9339 3.91481C53.2368 2.73908 52.2384 1.77078 51.0419 1.10992C49.8455 0.449067 48.4942 0.119622 47.1278 0.155617C45.7614 0.191613 44.4294 0.591743 43.2694 1.31468L31.2242 8.82161H14.0606C10.5457 8.78401 7.15184 10.1039 4.58592 12.5064C2.01999 14.9088 0.479863 18.2086 0.286343 21.7183C0.0928226 25.2281 1.26083 28.6772 3.54707 31.3472C5.83332 34.0172 9.06151 35.7022 12.5592 36.0513L13.5146 42.7393C13.7861 44.6307 14.7979 46.3368 16.3273 47.4822C17.8567 48.6277 19.7785 49.1187 21.6699 48.8472C23.5613 48.5757 25.2674 47.5639 26.4129 46.0345C27.5583 44.5051 28.0493 42.5833 27.7778 40.6919L27.0954 36.1195H31.2242L43.2694 43.6264C48.3877 46.834 55.0075 43.1487 55.0075 37.1432V7.79793ZM21.9429 36.1195H17.7458L18.5989 42.0227C18.7276 42.521 19.0364 42.954 19.4656 43.238C19.8948 43.522 20.414 43.637 20.923 43.5606C21.432 43.4843 21.8946 43.2221 22.2216 42.8246C22.5486 42.4272 22.7167 41.9226 22.6936 41.4085L21.9429 36.1195ZM14.0606 13.94H29.4157V31.0012H14.0606C11.7981 31.0012 9.62835 30.1024 8.02855 28.5026C6.42876 26.9028 5.53 24.733 5.53 22.4706C5.53 20.2081 6.42876 18.0383 8.02855 16.4385C9.62835 14.8387 11.7981 13.94 14.0606 13.94ZM45.965 39.2929L34.534 32.1272V12.8139L45.965 5.64822C46.3536 5.40325 46.8008 5.26735 47.26 5.25478C47.7191 5.24221 48.1732 5.35344 48.5745 5.57679C48.9758 5.80015 49.3097 6.1274 49.541 6.52421C49.7723 6.92102 49.8925 7.37276 49.8891 7.83206V37.1091C49.8891 39.1564 47.6712 40.3507 45.965 39.2929Z" fill="#3c215c"/>
</svg>
