<svg width="59" height="58" viewBox="0 0 59 58" fill="none" xmlns="http://www.w3.org/2000/svg">
<path fill-rule="evenodd" clip-rule="evenodd" d="M32.5431 7.83118C32.3092 7.27311 31.9155 6.7966 31.4116 6.46149C30.9078 6.12638 30.3161 5.9476 29.711 5.9476C29.1058 5.9476 28.5142 6.12638 28.0103 6.46149C27.5064 6.7966 27.1128 7.27311 26.8788 7.83118L21.9993 19.2281C21.7728 19.7654 21.4124 20.2357 20.9524 20.5941C20.4924 20.9525 19.9483 21.1871 19.3719 21.2754L8.72571 22.7768C8.13411 22.8611 7.57995 23.1161 7.13115 23.5107C6.68235 23.9052 6.35841 24.4221 6.19903 24.998C6.03966 25.574 6.05177 26.1839 6.23389 26.753C6.416 27.3222 6.76021 27.8258 7.22432 28.2022L14.7313 34.2419C15.2065 34.6301 15.5682 35.1392 15.7784 35.7157C15.9886 36.2922 16.0394 36.9147 15.9255 37.5177L13.8099 48.8463C13.6916 49.4679 13.7681 50.111 14.0291 50.6875C14.2901 51.2639 14.7228 51.7457 15.2681 52.0669C15.8133 52.3881 16.4445 52.533 17.0752 52.4818C17.706 52.4306 18.3055 52.1857 18.7918 51.7808L27.5271 44.4445C28.1403 43.9338 28.913 43.6541 29.711 43.6541C30.5089 43.6541 31.2817 43.9338 31.8948 44.4445L40.6301 51.7808C41.1165 52.1857 41.716 52.4306 42.3467 52.4818C42.9775 52.533 43.6086 52.3881 44.1539 52.0669C44.6991 51.7457 45.1318 51.2639 45.3929 50.6875C45.6539 50.111 45.7304 49.4679 45.612 48.8463L43.4964 37.5177C43.3826 36.9147 43.4334 36.2922 43.6436 35.7157C43.8538 35.1392 44.2155 34.6301 44.6907 34.2419L52.1976 28.2022C52.673 27.8285 53.0275 27.3228 53.2166 26.7484C53.4057 26.1741 53.4211 25.5567 53.2607 24.9737C53.1004 24.3906 52.7715 23.8679 52.3153 23.471C51.8591 23.0741 51.2959 22.8208 50.6963 22.7427L40.0501 21.2413C39.4737 21.153 38.9295 20.9184 38.4696 20.56C38.0096 20.2016 37.6492 19.7313 37.4226 19.1939L32.5431 7.83118ZM22.1699 5.85208C22.7973 4.37073 23.847 3.10694 25.1881 2.21847C26.5292 1.33001 28.1023 0.856201 29.711 0.856201C31.3197 0.856201 32.8928 1.33001 34.2339 2.21847C35.575 3.10694 36.6247 4.37073 37.252 5.85208L41.7221 16.3618L51.4128 17.7267C52.9895 17.9532 54.4659 18.6346 55.6612 19.6875C56.8565 20.7403 57.7188 22.1189 58.1425 23.6544C58.5663 25.1899 58.533 26.8156 58.0468 28.3325C57.5606 29.8494 56.6425 31.1915 55.4051 32.1946L48.7172 37.6541L50.6621 47.9591C50.9712 49.6172 50.7607 51.3303 50.0596 52.8643C49.3584 54.3983 48.2006 55.6783 46.7446 56.5296C45.2885 57.3808 43.6051 57.7617 41.9244 57.6202C40.2437 57.4787 38.6477 56.8217 37.3544 55.739L29.711 49.2899L22.1017 55.6708C20.8084 56.7535 19.2124 57.4105 17.5317 57.552C15.851 57.6935 14.1676 57.3126 12.7115 56.4613C11.2554 55.6101 10.0977 54.33 9.39652 52.796C8.69534 51.262 8.48489 49.549 8.79395 47.8909L10.7048 37.5518L4.01682 32.1263C2.77942 31.1233 1.8614 29.7811 1.3752 28.2643C0.888995 26.7474 0.855709 25.1217 1.27942 23.5862C1.70313 22.0507 2.56544 20.6721 3.76074 19.6192C4.95604 18.5664 6.43245 17.8849 8.00914 17.6584L17.6999 16.2935L22.1699 5.78383V5.85208Z" fill="#3c215c"/>
</svg>
