<svg width="62" height="42" viewBox="0 0 62 42" fill="none" xmlns="http://www.w3.org/2000/svg">
<path fill-rule="evenodd" clip-rule="evenodd" d="M30.7102 13.7955C29.5789 13.7955 28.494 13.3461 27.6941 12.5462C26.8942 11.7463 26.4449 10.6614 26.4449 9.5302C26.4449 8.39898 26.8942 7.31408 27.6941 6.51418C28.494 5.71428 29.5789 5.2649 30.7102 5.2649C31.8414 5.2649 32.9263 5.71428 33.7262 6.51418C34.5261 7.31408 34.9755 8.39898 34.9755 9.5302C34.9755 10.6614 34.5261 11.7463 33.7262 12.5462C32.9263 13.3461 31.8414 13.7955 30.7102 13.7955ZM21.3265 9.5302C21.3265 7.0415 22.3151 4.65473 24.0749 2.89495C25.8347 1.13518 28.2215 0.146545 30.7102 0.146545C33.1989 0.146545 35.5856 1.13518 37.3454 2.89495C39.1052 4.65473 40.0938 7.0415 40.0938 9.5302C40.0938 12.0189 39.1052 14.4057 37.3454 16.1655C35.5856 17.9252 33.1989 18.9139 30.7102 18.9139C28.2215 18.9139 25.8347 17.9252 24.0749 16.1655C22.3151 14.4057 21.3265 12.0189 21.3265 9.5302ZM19.6204 34.2689C19.6204 32.8358 20.4052 31.4368 22.3502 30.2766C24.9123 28.8879 27.7974 28.2049 30.7102 28.2975C34.1906 28.2975 37.1252 29.0823 39.0701 30.2766C41.0151 31.4368 41.7999 32.8358 41.7999 34.2689C41.7999 35.2926 41.4587 35.7703 41.0492 36.1115C40.5715 36.4869 39.6843 36.8281 38.3877 36.8281H23.0326C21.7018 36.8281 20.8488 36.4869 20.3711 36.1115C19.9616 35.7703 19.6204 35.2585 19.6204 34.2689ZM30.7102 23.1792C26.5131 23.1792 22.6231 24.1005 19.6886 25.909C16.6859 27.7174 14.502 30.5837 14.502 34.2689C14.502 36.6575 15.4574 38.7049 17.1636 40.1039C18.8014 41.4346 20.917 41.9465 23.0326 41.9465H38.3877C40.4692 41.9465 42.6189 41.4346 44.2567 40.1039C45.9629 38.739 46.9183 36.6916 46.9183 34.2689C46.9183 30.5837 44.7345 27.7174 41.7317 25.909C38.3689 24.0277 34.5623 23.0849 30.7102 23.1792ZM44.3591 4.10474C44.4052 3.77046 44.5168 3.44859 44.6878 3.15764C44.8587 2.86669 45.0854 2.61242 45.355 2.40945C45.6246 2.20648 45.9316 2.05883 46.2585 1.97498C46.5853 1.89114 46.9255 1.87276 47.2595 1.92091C49.4228 2.19433 51.3992 3.28573 52.7828 4.97092C54.1665 6.65611 54.8523 8.80716 54.6994 10.9822C54.5465 13.1573 53.5666 15.1913 51.9608 16.6664C50.3551 18.1415 48.2454 18.9457 46.0652 18.9139C45.3865 18.9139 44.7356 18.6442 44.2556 18.1643C43.7757 17.6844 43.5061 17.0334 43.5061 16.3547C43.5061 15.6759 43.7757 15.025 44.2556 14.5451C44.7356 14.0651 45.3865 13.7955 46.0652 13.7955C46.9281 13.7946 47.7586 13.4668 48.3895 12.8781C49.0204 12.2894 49.4049 11.4835 49.4654 10.6227C49.526 9.76196 49.2582 8.9102 48.7159 8.23897C48.1737 7.56773 47.3972 7.12687 46.5429 7.00515C45.874 6.90401 45.2724 6.54212 44.8695 5.9986C44.4667 5.45508 44.2954 4.77417 44.3932 4.10474H44.3591ZM50.3647 21.473C49.6859 21.473 49.035 21.7427 48.555 22.2226C48.0751 22.7025 47.8055 23.3535 47.8055 24.0322C47.8055 24.711 48.0751 25.3619 48.555 25.8418C49.035 26.3218 49.6859 26.5914 50.3647 26.5914C54.3229 26.5914 56.3361 28.8776 56.3361 30.8567C56.3446 31.5386 56.1154 32.2022 55.6877 32.7334C55.4955 32.9594 55.2541 33.1383 54.982 33.2566C54.71 33.3749 54.4145 33.4294 54.1181 33.4159C53.4394 33.4159 52.7884 33.6855 52.3085 34.1654C51.8286 34.6454 51.5589 35.2963 51.5589 35.9751C51.5589 36.6538 51.8286 37.3047 52.3085 37.7847C52.7884 38.2646 53.4394 38.5342 54.1181 38.5342C58.9976 38.5342 61.4544 34.4054 61.4544 30.8567C61.4544 25.0218 55.9949 21.473 50.3647 21.473ZM13.649 24.0322C13.649 23.3535 13.3793 22.7025 12.8994 22.2226C12.4195 21.7427 11.7685 21.473 11.0898 21.473C5.49371 21.473 0 25.0218 0 30.8567C0 34.4054 2.45681 38.5342 7.33632 38.5342C8.01505 38.5342 8.66599 38.2646 9.14593 37.7847C9.62587 37.3047 9.8955 36.6538 9.8955 35.9751C9.8955 35.2963 9.62587 34.6454 9.14593 34.1654C8.66599 33.6855 8.01505 33.4159 7.33632 33.4159C7.03433 33.4347 6.73213 33.3828 6.45372 33.2644C6.17531 33.1459 5.92838 32.9641 5.73256 32.7334C5.31718 32.1976 5.10015 31.5344 5.11836 30.8567C5.11836 28.8776 7.1657 26.5914 11.0898 26.5914C11.7685 26.5914 12.4195 26.3218 12.8994 25.8418C13.3793 25.3619 13.649 24.711 13.649 24.0322ZM14.1267 1.95503C14.7722 1.90525 15.4127 2.10203 15.9189 2.50569C16.4252 2.90936 16.7596 3.48991 16.8548 4.13035C16.95 4.7708 16.7989 5.42352 16.4319 5.95699C16.065 6.49045 15.5095 6.865 14.8774 7.00515C14.0231 7.12687 13.2467 7.56773 12.7044 8.23897C12.1621 8.9102 11.8943 9.76196 11.9549 10.6227C12.0154 11.4835 12.3999 12.2894 13.0308 12.8781C13.6617 13.4668 14.4922 13.7946 15.3551 13.7955C16.0338 13.7955 16.6848 14.0651 17.1647 14.5451C17.6446 15.025 17.9143 15.6759 17.9143 16.3547C17.9143 17.0334 17.6446 17.6844 17.1647 18.1643C16.6848 18.6442 16.0338 18.9139 15.3551 18.9139C13.2143 18.8922 11.16 18.0664 9.59984 16.6003C8.0397 15.1343 7.08782 13.1353 6.93315 11C6.77848 8.86473 7.43233 6.74937 8.76492 5.07381C10.0975 3.39824 12.0114 2.28499 14.1267 1.95503Z" fill="#3c215c"/>
</svg>
