<svg width="57" height="58" viewBox="0 0 57 58" fill="none" xmlns="http://www.w3.org/2000/svg">
<path fill-rule="evenodd" clip-rule="evenodd" d="M33.7156 22.0411C32.7601 21.1197 31.9412 20.3008 31.327 19.5501C30.6242 18.7888 30.0792 17.8958 29.7232 16.9227C29.2152 15.3708 29.2152 13.6974 29.7232 12.1456C30.0645 11.1219 30.6446 10.3029 31.2929 9.51813C31.9412 8.76744 32.8284 7.88026 33.7838 6.92483L34.6369 6.10589L35.4558 5.25283C36.4112 4.29741 37.2984 3.41022 38.0491 2.7619C38.8339 2.11357 39.6529 1.53349 40.6765 1.19227C42.2462 0.714556 43.884 0.714556 45.4537 1.19227C46.4773 1.53349 47.2963 2.11357 48.0811 2.7619C48.8318 3.41022 49.6507 4.22916 50.6062 5.15047L51.4933 6.10589L52.4146 6.99308C53.3701 7.9485 54.189 8.76744 54.8032 9.51813C55.4857 10.3029 56.0657 11.1219 56.407 12.1456C56.8847 13.7152 56.8847 15.3531 56.407 16.9227C56.0657 17.9464 55.4857 18.7653 54.8373 19.5501C54.189 20.3008 53.3018 21.188 52.3464 22.1434L51.4933 22.9624L50.6744 23.8154C49.719 24.7708 48.8318 25.658 48.0811 26.3064C47.2963 26.9547 46.4773 27.5348 45.4537 27.876C43.884 28.3537 42.2462 28.3537 40.6765 27.876C39.7062 27.5303 38.8134 26.9969 38.0491 26.3064C37.1775 25.5425 36.3352 24.7457 35.5241 23.9178L34.6369 22.9624L33.7156 22.0752V22.0411ZM48.7294 18.5264L47.8764 19.3454L47.0574 20.1984C46.0338 21.2221 45.3513 21.9046 44.7712 22.3823C44.5064 22.6443 44.1936 22.8528 43.8499 22.9965C43.3396 23.1609 42.7906 23.1609 42.2803 22.9965C41.937 22.8521 41.6243 22.6436 41.359 22.3823C40.813 21.9046 40.1306 21.2562 39.0728 20.1984L38.2538 19.3454L37.4008 18.5264C36.3771 17.5028 35.6947 16.8203 35.217 16.2402C34.955 15.9754 34.7464 15.6626 34.6028 15.3189C34.4383 14.8086 34.4383 14.2596 34.6028 13.7493C34.7464 13.4056 34.955 13.0928 35.217 12.828C35.6947 12.282 36.343 11.5996 37.4008 10.5418L38.2538 9.72287L39.0728 8.86981C40.0965 7.84614 40.7789 7.16369 41.359 6.68598C41.6243 6.42463 41.937 6.21619 42.2803 6.07177C42.7906 5.90736 43.3396 5.90736 43.8499 6.07177C43.9864 6.10589 44.2253 6.24238 44.7712 6.68598C45.3172 7.16369 45.9996 7.81201 47.0574 8.86981L47.8764 9.72287L48.7294 10.5418C49.7531 11.5655 50.4355 12.2479 50.9133 12.828C51.3568 13.374 51.4933 13.6128 51.5275 13.7493C51.6981 14.2611 51.6981 14.8071 51.5275 15.3189C51.383 15.6622 51.1746 15.9749 50.9133 16.2402C50.4355 16.7862 49.7872 17.4687 48.7294 18.5264ZM31.1223 43.9476C31.1223 42.5827 31.1223 41.4226 31.1905 40.4671C31.2929 39.4435 31.4635 38.4539 31.9753 37.4985C32.6919 36.0654 33.8862 34.8711 35.3193 34.1545C36.2747 33.6427 37.2984 33.4721 38.288 33.3697C39.2434 33.3014 40.5059 33.3014 41.8708 33.3014H44.2594C45.6243 33.3014 46.8868 33.3014 47.8422 33.3697C48.8659 33.4721 49.8555 33.6427 50.8109 34.1545C52.244 34.8711 53.4383 36.0654 54.1549 37.4985C54.6667 38.4539 54.8373 39.4776 54.9397 40.4671C55.0079 41.4226 55.0079 42.6169 55.0079 43.9476V46.5409C55.0079 47.9058 55.0079 49.066 54.9397 50.0214C54.862 51.3425 54.4442 52.6211 53.7268 53.7332C53.0094 54.8452 52.0167 55.7529 50.845 56.3682C49.8213 56.8459 48.8318 57.0506 47.8422 57.1189C46.8868 57.1871 45.6243 57.1871 44.2594 57.1871H41.8708C40.5059 57.1871 39.2434 57.1871 38.288 57.1189C37.2643 57.0165 36.2747 56.8459 35.3193 56.3341C33.8806 55.599 32.7104 54.4288 31.9753 52.9901C31.5208 52.0618 31.2541 51.053 31.1905 50.0214C31.1223 49.066 31.1223 47.8717 31.1223 46.5409V45.2443V43.9476ZM44.2594 52.0688H41.8708C40.4036 52.0688 39.4481 52.0688 38.7316 52.0005C38.3579 52.0024 37.9873 51.9329 37.6396 51.7958C37.1541 51.5497 36.7596 51.1553 36.5136 50.6697C36.3765 50.3221 36.307 49.9515 36.3089 49.5778C36.2406 48.8954 36.2406 47.9058 36.2406 46.4386V44.05C36.2406 42.5827 36.2406 41.6273 36.3089 40.9107C36.343 40.2283 36.4454 39.9553 36.5136 39.8188C36.7596 39.3333 37.1541 38.9388 37.6396 38.6928C37.987 38.5548 38.3578 38.4853 38.7316 38.4881C39.414 38.4198 40.4036 38.4198 41.8708 38.4198H44.2594C45.7267 38.4198 46.6821 38.4198 47.3987 38.4881C48.0811 38.5222 48.3541 38.6245 48.4906 38.6928C48.9683 38.9316 49.3777 39.3411 49.6166 39.8188C49.6848 39.9553 49.7872 40.1942 49.8213 40.9107C49.8896 41.5932 49.8896 42.5827 49.8896 44.05V46.4386C49.8896 47.9058 49.8896 48.8613 49.8213 49.5778C49.8232 49.9515 49.7537 50.3221 49.6166 50.6697C49.3706 51.1553 48.9761 51.5497 48.4906 51.7958C48.1429 51.9329 47.7723 52.0024 47.3987 52.0005C46.7162 52.0688 45.7267 52.0688 44.2594 52.0688ZM0.412109 13.2375V15.8308C0.412109 17.1957 0.412109 18.3558 0.480354 19.3113C0.558001 20.6324 0.975816 21.911 1.69326 23.023C2.4107 24.135 3.4034 25.0427 4.57504 25.658C5.59871 26.1357 6.58826 26.3405 7.57781 26.4087C8.53324 26.477 9.79577 26.477 11.1607 26.477H13.5492C14.9141 26.477 16.1767 26.477 17.1321 26.4087C18.4532 26.3311 19.7318 25.9133 20.8438 25.1958C21.9558 24.4784 22.8636 23.4857 23.4788 22.314C23.9566 21.2904 24.1613 20.3008 24.2295 19.3113C24.2978 18.3558 24.2978 17.1616 24.2978 15.8308V13.2375C24.2978 11.8726 24.2978 10.7124 24.2295 9.75699C24.166 8.72542 23.8993 7.71656 23.4447 6.78834C22.7097 5.34959 21.5395 4.1794 20.1007 3.44435C19.1725 2.98982 18.1637 2.72311 17.1321 2.65953C16.1767 2.59129 14.9141 2.59129 13.5492 2.59129H11.1607C9.79577 2.59129 8.53324 2.59129 7.57781 2.65953C6.25671 2.73718 4.97811 3.15499 3.86608 3.87243C2.75405 4.58987 1.84634 5.58258 1.23105 6.75422C0.753333 7.77789 0.548599 8.76744 0.480354 9.75699C0.412109 10.7124 0.412109 11.9067 0.412109 13.2375ZM12.3549 21.3586H13.5492C15.0165 21.3586 15.9719 21.3586 16.6885 21.2904C17.3709 21.2562 17.6439 21.1539 17.7804 21.0856C18.266 20.8396 18.6604 20.4451 18.9064 19.9596C19.0444 19.6122 19.1139 19.2414 19.1112 18.8677C19.1794 18.1852 19.1794 17.1957 19.1794 15.7284V13.3398C19.1794 11.8726 19.1794 10.9172 19.1112 10.2006C19.1139 9.82682 19.0444 9.45605 18.9064 9.10867C18.6604 8.62312 18.266 8.22867 17.7804 7.98263C17.4328 7.84548 17.0622 7.77599 16.6885 7.77789C16.006 7.70965 15.0165 7.70965 13.5492 7.70965H11.1607C9.6934 7.70965 8.73797 7.70965 8.0214 7.77789C7.64772 7.77599 7.2771 7.84548 6.92949 7.98263C6.44394 8.22867 6.04949 8.62312 5.80345 9.10867C5.66548 9.45605 5.59596 9.82682 5.59871 10.2006C5.53047 10.883 5.53047 11.8726 5.53047 13.3398V15.7284C5.53047 17.1957 5.53047 18.1511 5.59871 18.8677C5.63284 19.5501 5.7352 19.8231 5.80345 19.9596C6.0423 20.4373 6.45177 20.8468 6.92949 21.0856C7.06598 21.1539 7.30483 21.2562 8.0214 21.2904C8.70385 21.3586 9.6934 21.3586 11.1607 21.3586H12.3549ZM0.412109 43.9476C0.412109 42.5827 0.412109 41.4226 0.480354 40.4671C0.582721 39.4435 0.753333 38.4539 1.26517 37.4985C1.98174 36.0654 3.17602 34.8711 4.60916 34.1545C5.56459 33.6427 6.58826 33.4721 7.57781 33.3697C8.53324 33.3014 9.79577 33.3014 11.1607 33.3014H13.5492C14.9141 33.3014 16.1767 33.3014 17.1321 33.3697C18.1558 33.4721 19.1453 33.6427 20.1007 34.1545C21.5339 34.8711 22.7282 36.0654 23.4447 37.4985C23.9566 38.4539 24.1272 39.4776 24.2295 40.4671C24.2978 41.4226 24.2978 42.6169 24.2978 43.9476V46.5409C24.2978 47.9058 24.2978 49.066 24.2295 50.0214C24.1519 51.3425 23.7341 52.6211 23.0166 53.7332C22.2992 54.8452 21.3065 55.7529 20.1349 56.3682C19.1112 56.8459 18.1216 57.0506 17.1321 57.1189C16.1767 57.1871 14.9141 57.1871 13.5492 57.1871H11.1607C9.79577 57.1871 8.53324 57.1871 7.57781 57.1189C6.25671 57.0412 4.97811 56.6234 3.86608 55.906C2.75405 55.1885 1.84634 54.1958 1.23105 53.0242C0.783966 52.083 0.528773 51.0622 0.480354 50.0214C0.412109 49.066 0.412109 47.8717 0.412109 46.5409V45.2443V43.9476ZM13.5492 52.0688H11.1607C9.6934 52.0688 8.73797 52.0688 8.0214 52.0005C7.64772 52.0024 7.2771 51.9329 6.92949 51.7958C6.44394 51.5497 6.04949 51.1553 5.80345 50.6697C5.66548 50.3224 5.59596 49.9516 5.59871 49.5778C5.53047 48.8954 5.53047 47.9058 5.53047 46.4386V44.05C5.53047 42.5827 5.53047 41.6273 5.59871 40.9107C5.63284 40.2283 5.7352 39.9553 5.80345 39.8188C6.04949 39.3333 6.44394 38.9388 6.92949 38.6928C7.27687 38.5548 7.64764 38.4853 8.0214 38.4881C8.70385 38.4198 9.6934 38.4198 11.1607 38.4198H13.5492C15.0165 38.4198 15.9719 38.4198 16.6885 38.4881C17.3709 38.5222 17.6439 38.6245 17.7804 38.6928C18.2581 38.9316 18.6676 39.3411 18.9064 39.8188C18.9747 39.9553 19.0771 40.1942 19.1112 40.9107C19.1794 41.5932 19.1794 42.5827 19.1794 44.05V46.4386C19.1794 47.9058 19.1794 48.8613 19.1112 49.5778C19.1139 49.9516 19.0444 50.3224 18.9064 50.6697C18.6604 51.1553 18.266 51.5497 17.7804 51.7958C17.4328 51.9329 17.0622 52.0024 16.6885 52.0005C16.006 52.0688 15.0165 52.0688 13.5492 52.0688Z" fill="#3c215c"/>
</svg>
