<svg width="52" height="59" viewBox="0 0 52 59" fill="none" xmlns="http://www.w3.org/2000/svg">
<path fill-rule="evenodd" clip-rule="evenodd" d="M50.2781 18.8223C50.6535 19.4348 50.9299 20.1027 51.097 20.8014C51.3018 21.5862 51.3018 22.4393 51.3018 24.1113V34.2456C51.3018 42.8445 51.3018 47.1439 49.6298 50.4196C48.1566 53.315 45.803 55.6685 42.9076 57.1417C39.6319 58.8137 35.3325 58.8137 26.7336 58.8137H24.6863C16.0874 58.8137 11.788 58.8137 8.51227 57.1417C5.6169 55.6685 3.26336 53.315 1.79016 50.4196C0.118164 47.1439 0.118164 42.8445 0.118164 34.2456V25.3738C0.118164 16.7749 0.118164 12.4755 1.79016 9.19977C3.26336 6.3044 5.6169 3.95086 8.51227 2.47766C11.788 0.805664 16.0874 0.805664 24.6863 0.805664H27.9962C29.7023 0.805664 30.5212 0.805664 31.306 1.0104C31.9885 1.14689 32.6709 1.45399 33.2851 1.79521C33.9676 2.2388 34.5477 2.81889 35.7419 4.01317L48.0942 16.3655C49.2885 17.5598 49.8686 18.1398 50.3122 18.8223H50.2781ZM26.7336 53.6954H24.6863C20.3186 53.6954 17.3159 53.6954 15.0297 53.4906C12.7776 53.32 11.6174 52.9788 10.8326 52.5693C8.91348 51.5971 7.34944 50.045 6.36256 48.1334C5.77955 46.7976 5.46644 45.3596 5.44126 43.9022C5.23652 41.6161 5.23652 38.6133 5.23652 34.2456V25.3738C5.23652 21.0061 5.23652 18.0034 5.44126 15.7172C5.61187 13.4651 5.95309 12.3049 6.36256 11.5201C7.33476 9.60098 8.88687 8.03694 10.7985 7.05006C11.6174 6.64059 12.7776 6.29937 15.0297 6.12876C17.3159 5.92402 20.3186 5.92402 24.6863 5.92402H25.71V10.2917C25.71 12.5779 25.71 14.4887 25.8465 15.9901C25.9488 17.5939 26.2559 18.9929 26.9042 20.3578C27.9962 22.4051 29.6682 24.1113 31.7496 25.2032C33.1145 25.8856 34.5135 26.1586 36.1173 26.261C37.6187 26.3975 39.5295 26.3975 41.8157 26.3975H46.1834V34.2456C46.1834 38.6133 46.1834 41.6161 45.9787 43.9022C45.8081 46.1543 45.4668 47.3145 45.0574 48.0993C44.0852 50.0184 42.5331 51.5825 40.6214 52.5693C39.8025 52.9788 38.6423 53.32 36.3903 53.4906C34.1041 53.6954 31.1013 53.6954 26.7336 53.6954ZM45.7398 21.2791H41.9181C39.4954 21.2791 37.8234 21.2791 36.5268 21.1767C35.6913 21.1543 34.8684 20.9688 34.1041 20.6308C32.978 20.0507 32.0567 19.1294 31.4766 18.0034C31.1429 17.2496 30.9575 16.4387 30.9307 15.6148C30.83 13.8082 30.7958 11.9985 30.8283 10.1893V6.36761L30.8624 6.40174L32.125 7.63014L44.4773 19.9825L45.7057 21.245L45.7398 21.2791Z" fill="#3c215c"/>
</svg>
