<svg width="62" height="46" viewBox="0 0 62 46" fill="none" xmlns="http://www.w3.org/2000/svg">
<path fill-rule="evenodd" clip-rule="evenodd" d="M17.9143 0.925842C15.1993 0.925842 12.5956 2.00435 10.6758 3.92411C8.75605 5.84387 7.67754 8.44761 7.67754 11.1626C7.67754 13.8775 8.75605 16.4813 10.6758 18.401C12.5956 20.3208 15.1993 21.3993 17.9143 21.3993C20.6292 21.3993 23.233 20.3208 25.1527 18.401C27.0725 16.4813 28.151 13.8775 28.151 11.1626C28.151 8.44761 27.0725 5.84387 25.1527 3.92411C23.233 2.00435 20.6292 0.925842 17.9143 0.925842ZM12.7959 11.1626C12.7959 11.8347 12.9283 12.5003 13.1855 13.1213C13.4427 13.7423 13.8197 14.3065 14.295 14.7818C14.7703 15.2571 15.3346 15.6341 15.9555 15.8913C16.5765 16.1485 17.2421 16.2809 17.9143 16.2809C18.5864 16.2809 19.252 16.1485 19.873 15.8913C20.494 15.6341 21.0582 15.2571 21.5335 14.7818C22.0088 14.3065 22.3858 13.7423 22.643 13.1213C22.9002 12.5003 23.0326 11.8347 23.0326 11.1626C23.0326 9.80509 22.4934 8.50321 21.5335 7.54333C20.5736 6.58346 19.2717 6.0442 17.9143 6.0442C16.5568 6.0442 15.2549 6.58346 14.295 7.54333C13.3352 8.50321 12.7959 9.80509 12.7959 11.1626ZM5.76669 28.4626C9.04243 26.5859 13.3419 25.6646 17.9143 25.6646C22.4867 25.6646 26.7861 26.5859 30.0618 28.4626C33.4058 30.3735 35.8285 33.4786 35.8285 37.6074C35.8285 39.996 34.8731 42.0433 33.167 43.4423C31.5291 44.7731 29.4135 45.285 27.2979 45.285H8.5306C6.44913 45.285 4.29942 44.7731 2.66155 43.4423C0.955427 42.0774 0 40.0301 0 37.6074C0 33.4786 2.42269 30.3735 5.76669 28.4626ZM8.32586 32.8985C6.10791 34.1611 5.11836 35.7648 5.11836 37.6074C5.11836 38.6311 5.45958 39.1088 5.86905 39.45C6.34677 39.8254 7.23395 40.1666 8.5306 40.1666H27.2979C28.6287 40.1666 29.4817 39.8254 29.9595 39.45C30.3689 39.1088 30.7102 38.597 30.7102 37.6074C30.7102 35.7648 29.7206 34.1952 27.5027 32.8985C25.2506 31.5678 21.8725 30.7829 17.9143 30.7829C13.9561 30.7829 10.5779 31.5678 8.32586 32.8985ZM43.5061 0.925842C40.7911 0.925842 38.1874 2.00435 36.2676 3.92411C34.3478 5.84387 33.2693 8.44761 33.2693 11.1626C33.2693 13.8775 34.3478 16.4813 36.2676 18.401C38.1874 20.3208 40.7911 21.3993 43.5061 21.3993C46.221 21.3993 48.8248 20.3208 50.7445 18.401C52.6643 16.4813 53.7428 13.8775 53.7428 11.1626C53.7428 8.44761 52.6643 5.84387 50.7445 3.92411C48.8248 2.00435 46.221 0.925842 43.5061 0.925842ZM38.3877 11.1626C38.3877 12.52 38.9269 13.8219 39.8868 14.7818C40.8467 15.7417 42.1486 16.2809 43.5061 16.2809C44.8635 16.2809 46.1654 15.7417 47.1253 14.7818C48.0852 13.8219 48.6244 12.52 48.6244 11.1626C48.6244 9.80509 48.0852 8.50321 47.1253 7.54333C46.1654 6.58346 44.8635 6.0442 43.5061 6.0442C42.1486 6.0442 40.8467 6.58346 39.8868 7.54333C38.9269 8.50321 38.3877 9.80509 38.3877 11.1626Z" fill="#3c215c"/>
<path d="M43.5056 30.783C42.7208 30.783 41.9701 30.8171 41.1853 30.8853C40.8392 30.9417 40.4852 30.9263 40.1453 30.8402C39.8053 30.754 39.4868 30.5989 39.2093 30.3845C38.9318 30.1701 38.7013 29.901 38.5322 29.5938C38.3631 29.2866 38.2589 28.9479 38.2261 28.5988C38.1933 28.2497 38.2326 27.8976 38.3415 27.5643C38.4505 27.2309 38.6268 26.9236 38.8594 26.6612C39.0921 26.3989 39.3762 26.1872 39.6942 26.0392C40.0121 25.8913 40.357 25.8102 40.7076 25.8011C41.6289 25.6987 42.5502 25.6646 43.5056 25.6646C48.078 25.6646 52.3774 26.5859 55.6532 28.4626C58.9972 30.3735 61.4199 33.4786 61.4199 37.6074C61.4199 39.996 60.4644 42.0434 58.7583 43.4424C57.1204 44.7732 55.0048 45.285 52.8893 45.285H42.6525C41.9738 45.285 41.3229 45.0154 40.8429 44.5354C40.363 44.0555 40.0934 43.4045 40.0934 42.7258C40.0934 42.0471 40.363 41.3961 40.8429 40.9162C41.3229 40.4363 41.9738 40.1666 42.6525 40.1666H52.8893C54.22 40.1666 55.0731 39.8254 55.5508 39.4501C55.9603 39.1088 56.3015 38.597 56.3015 37.6074C56.3015 35.7648 55.3119 34.1952 53.094 32.8986C50.1278 31.3949 46.8291 30.6671 43.5056 30.783Z" fill="#3c215c"/>
</svg>
