<svg width="57" height="55" viewBox="0 0 57 55" fill="none" xmlns="http://www.w3.org/2000/svg">
<path d="M16.8938 45.3587C17.2378 44.9773 17.6887 44.7083 18.1877 44.5865C18.6867 44.4648 19.2108 44.4961 19.6918 44.6763C22.5355 45.707 25.539 46.2268 28.5637 46.2118C41.4278 46.2118 51.5963 36.9987 51.5963 25.7383C51.5963 14.478 41.4278 5.2649 28.5637 5.2649C15.6995 5.2649 5.53105 14.478 5.53105 25.7383C5.53105 29.8672 6.89594 33.8254 9.421 37.1693C9.78263 37.6493 9.96382 38.2412 9.93284 38.8413C9.39946 42.6045 8.1484 46.2303 6.24762 49.5216C11.2977 49.1463 14.7782 47.7132 16.8938 45.3587ZM4.64386 54.7424C3.9224 54.7691 3.20668 54.6046 2.56927 54.2656C1.93187 53.9266 1.39543 53.425 1.01435 52.8118C0.633271 52.1987 0.421091 51.4956 0.399323 50.774C0.377555 50.0523 0.546973 49.3378 0.890401 48.7027C2.58684 45.7882 3.87287 42.6535 4.71211 39.3873C1.91775 35.384 0.417255 30.6205 0.412687 25.7383C0.412687 11.5093 12.9697 0.146545 28.5637 0.146545C44.1576 0.146545 56.7146 11.5093 56.7146 25.7383C56.7146 39.9674 44.1576 51.3301 28.5637 51.3301C25.4871 51.3288 22.428 50.8688 19.4871 49.9652C16.0749 53.0021 11.093 54.5376 4.64386 54.7424Z" fill="#3c215c"/>
</svg>
