<svg width="56" height="55" viewBox="0 0 56 55" fill="none" xmlns="http://www.w3.org/2000/svg">
<path fill-rule="evenodd" clip-rule="evenodd" d="M24.9802 5.19166H30.4398C34.8075 5.19166 37.8103 5.19166 40.0965 5.3964C42.3485 5.56701 43.5087 5.90823 44.2935 6.3177C46.2126 7.2899 47.7767 8.84201 48.7635 10.7536C49.4206 12.2231 49.7468 13.819 49.719 15.4284H5.70108V14.9848C5.90581 12.7327 6.24704 11.5725 6.65651 10.7877C7.62871 8.86862 9.18081 7.30458 11.0924 6.3177C11.9114 5.90823 13.0715 5.56701 15.3236 5.3964C17.6098 5.19166 20.5784 5.19166 24.9802 5.19166ZM5.53047 20.5467V30.101C5.53047 34.4687 5.53047 37.4715 5.7352 39.7576C5.90581 42.0097 6.24704 43.1699 6.65651 43.9547C7.62871 45.8738 9.18081 47.4379 11.0924 48.4247C11.9114 48.8342 13.0715 49.1754 15.3236 49.346C17.6098 49.5508 20.5784 49.5508 24.9802 49.5508H30.4398C34.8075 49.5508 37.8103 49.5508 40.0965 49.346C42.3485 49.1754 43.5087 48.8342 44.2935 48.4247C46.2126 47.4525 47.7767 45.9004 48.7635 43.9888C49.173 43.1699 49.5142 42.0097 49.6848 39.7576C49.8896 37.4715 49.8896 34.4687 49.8896 30.101V24.6414V20.5467H5.53047ZM0.412109 24.6414C0.412109 16.0426 0.412109 11.7432 2.08411 8.46741C3.55731 5.57204 5.91084 3.2185 8.80622 1.7453C12.082 0.0733032 16.3814 0.0733032 24.9802 0.0733032H30.4398C39.0387 0.0733032 43.3381 0.0733032 46.6138 1.7453C49.5092 3.2185 51.8627 5.57204 53.3359 8.46741C55.0079 11.7432 55.0079 16.0426 55.0079 24.6414V30.101C55.0079 38.6999 55.0079 42.9993 53.3359 46.275C51.8627 49.1704 49.5092 51.5239 46.6138 52.9971C43.3381 54.6691 39.0387 54.6691 30.4398 54.6691H24.9802C16.3814 54.6691 12.082 54.6691 8.80622 52.9971C5.91084 51.5239 3.55731 49.1704 2.08411 46.275C0.412109 42.9993 0.412109 38.6999 0.412109 30.101V24.6414Z" fill="#3c215c"/>
</svg>
