<svg width="59" height="55" viewBox="0 0 59 55" fill="none" xmlns="http://www.w3.org/2000/svg">
<path fill-rule="evenodd" clip-rule="evenodd" d="M13.3996 1.49837C14.4233 0.474696 16.027 0.474696 17.0166 1.49837L20.4288 4.91061C23.1619 3.34292 26.2473 2.49261 29.3976 2.43891C32.5479 2.38522 35.6605 3.12988 38.4454 4.60351L41.5506 1.49837C41.7849 1.24693 42.0674 1.04526 42.3813 0.905386C42.6952 0.765511 43.0341 0.690299 43.3777 0.684236C43.7214 0.678173 44.0627 0.741383 44.3813 0.870097C44.7 0.99881 44.9895 1.19039 45.2325 1.4334C45.4755 1.67642 45.6671 1.96589 45.7958 2.28456C45.9245 2.60322 45.9877 2.94454 45.9817 3.28816C45.9756 3.63179 45.9004 3.97067 45.7605 4.28459C45.6206 4.59852 45.419 4.88105 45.1675 5.11534L42.6425 7.6404C44.6436 9.52996 46.2046 11.8365 47.2149 14.3966H52.7427C53.4214 14.3966 54.0724 14.6663 54.5523 15.1462C55.0323 15.6261 55.3019 16.2771 55.3019 16.9558C55.3019 17.6346 55.0323 18.2855 54.5523 18.7654C54.0724 19.2454 53.4214 19.515 52.7427 19.515H48.4092L48.4774 21.2211V26.3395H56.1549C56.8337 26.3395 57.4846 26.6091 57.9646 27.089C58.4445 27.569 58.7141 28.2199 58.7141 28.8987C58.7141 29.5774 58.4445 30.2283 57.9646 30.7083C57.4846 31.1882 56.8337 31.4578 56.1549 31.4578H48.4774V35.7231C48.4774 36.5762 48.4092 37.4292 48.3068 38.2823H52.7427C53.4214 38.2823 54.0724 38.5519 54.5523 39.0319C55.0323 39.5118 55.3019 40.1628 55.3019 40.8415C55.3019 41.5202 55.0323 42.1712 54.5523 42.6511C54.0724 43.131 53.4214 43.4007 52.7427 43.4007H46.8395C45.3598 46.7064 42.9552 49.5133 39.9157 51.4828C36.8763 53.4523 33.3319 54.5002 29.7101 54.5002C26.0883 54.5002 22.5439 53.4523 19.5045 51.4828C16.465 49.5133 14.0604 46.7064 12.5806 43.4007H6.67747C5.99874 43.4007 5.3478 43.131 4.86786 42.6511C4.38792 42.1712 4.11829 41.5202 4.11829 40.8415C4.11829 40.1628 4.38792 39.5118 4.86786 39.0319C5.3478 38.5519 5.99874 38.2823 6.67747 38.2823H11.1134C11.011 37.4292 10.9428 36.5762 10.9428 35.7231V31.4578H3.26523C2.5865 31.4578 1.93556 31.1882 1.45562 30.7083C0.975682 30.2283 0.706055 29.5774 0.706055 28.8987C0.706055 28.2199 0.975682 27.569 1.45562 27.089C1.93556 26.6091 2.5865 26.3395 3.26523 26.3395H10.9428V21.2211C10.9428 20.641 10.9428 20.061 11.011 19.515H6.67747C5.99874 19.515 5.3478 19.2454 4.86786 18.7654C4.38792 18.2855 4.11829 17.6346 4.11829 16.9558C4.11829 16.2771 4.38792 15.6261 4.86786 15.1462C5.3478 14.6663 5.99874 14.3966 6.67747 14.3966H12.2053C13.1361 12.0225 14.5409 9.86298 16.3341 8.04987L13.3996 5.11534C12.9203 4.63549 12.6511 3.98504 12.6511 3.30685C12.6511 2.62867 12.9203 1.97822 13.3996 1.49837ZM43.3591 35.7231V21.2211C43.3591 17.6012 41.921 14.1295 39.3614 11.5698C36.8017 9.01016 33.33 7.57215 29.7101 7.57215C26.0902 7.57215 22.6185 9.01016 20.0588 11.5698C17.4991 14.1295 16.0611 17.6012 16.0611 21.2211V35.7231C16.0611 39.3431 17.4991 42.8147 20.0588 45.3744C22.6185 47.9341 26.0902 49.3721 29.7101 49.3721C33.33 49.3721 36.8017 47.9341 39.3614 45.3744C41.921 42.8147 43.3591 39.3431 43.3591 35.7231ZM24.5917 22.0742C24.5917 20.6752 25.7519 19.515 27.1509 19.515H32.2693C32.948 19.515 33.5989 19.7846 34.0789 20.2646C34.5588 20.7445 34.8284 21.3954 34.8284 22.0742C34.8284 22.7529 34.5588 23.4038 34.0789 23.8838C33.5989 24.3637 32.948 24.6334 32.2693 24.6334H27.1509C26.4722 24.6334 25.8212 24.3637 25.3413 23.8838C24.8614 23.4038 24.5917 22.7529 24.5917 22.0742ZM27.1509 33.164C26.4722 33.164 25.8212 33.4336 25.3413 33.9135C24.8614 34.3935 24.5917 35.0444 24.5917 35.7231C24.5917 36.4019 24.8614 37.0528 25.3413 37.5327C25.8212 38.0127 26.4722 38.2823 27.1509 38.2823H32.2693C32.948 38.2823 33.5989 38.0127 34.0789 37.5327C34.5588 37.0528 34.8284 36.4019 34.8284 35.7231C34.8284 35.0444 34.5588 34.3935 34.0789 33.9135C33.5989 33.4336 32.948 33.164 32.2693 33.164H27.1509Z" fill="#3c215c"/>
</svg>
