<svg width="59" height="59" viewBox="0 0 59 59" fill="none" xmlns="http://www.w3.org/2000/svg">
<path fill-rule="evenodd" clip-rule="evenodd" d="M15.4981 48.2047C19.4734 51.1495 24.387 52.8897 29.7101 52.8897C35.0332 52.8897 39.9502 51.1495 43.9221 48.2047C39.6125 45.6783 34.7056 44.3506 29.7101 44.3591C24.5235 44.3591 19.6679 45.7581 15.4981 48.2047ZM11.6082 44.5877C8.62448 41.1226 6.69814 36.8739 6.05795 32.3463C5.41777 27.8187 6.09066 23.2024 7.99669 19.0459C9.90272 14.8895 12.9618 11.3675 16.8105 8.89829C20.6592 6.42912 25.1357 5.11657 29.7084 5.11657C34.281 5.11657 38.7576 6.42912 42.6063 8.89829C46.455 11.3675 49.514 14.8895 51.4201 19.0459C53.3261 23.2024 53.999 27.8187 53.3588 32.3463C52.7186 36.8739 50.7923 41.1226 47.8086 44.5877C42.4219 41.0881 36.1338 39.2304 29.7101 39.2408C23.2861 39.2316 16.998 41.0905 11.6116 44.5911L11.6082 44.5877ZM29.7101 0C25.9012 -5.67565e-08 22.1297 0.750211 18.6107 2.2078C15.0918 3.66539 11.8944 5.80181 9.20114 8.49509C6.50787 11.1884 4.37144 14.3857 2.91386 17.9047C1.45627 21.4236 0.706055 25.1952 0.706055 29.004C0.706055 32.8129 1.45627 36.5845 2.91386 40.1034C4.37144 43.6223 6.50787 46.8197 9.20114 49.513C11.8944 52.2063 15.0918 54.3427 18.6107 55.8003C22.1297 57.2579 25.9012 58.0081 29.7101 58.0081C37.4024 58.0081 44.7797 54.9523 50.219 49.513C55.6584 44.0737 58.7141 36.6964 58.7141 29.004C58.7141 21.3117 55.6584 13.9344 50.219 8.49509C44.7797 3.05577 37.4024 1.14625e-07 29.7101 0ZM24.5917 23.8857C24.5917 25.2432 25.131 26.545 26.0909 27.5049C27.0507 28.4648 28.3526 29.004 29.7101 29.004C31.0676 29.004 32.3694 28.4648 33.3293 27.5049C34.2892 26.545 34.8284 25.2432 34.8284 23.8857C34.8284 22.5282 34.2892 21.2263 33.3293 20.2664C32.3694 19.3066 31.0676 18.7673 29.7101 18.7673C28.3526 18.7673 27.0507 19.3066 26.0909 20.2664C25.131 21.2263 24.5917 22.5282 24.5917 23.8857ZM29.7101 13.649C28.3658 13.649 27.0346 13.9137 25.7927 14.4282C24.5507 14.9426 23.4222 15.6967 22.4716 16.6472C21.5211 17.5978 20.767 18.7263 20.2526 19.9683C19.7382 21.2102 19.4734 22.5414 19.4734 23.8857C19.4734 25.23 19.7382 26.5611 20.2526 27.8031C20.767 29.0451 21.5211 30.1736 22.4716 31.1241C23.4222 32.0747 24.5507 32.8287 25.7927 33.3432C27.0346 33.8576 28.3658 34.1224 29.7101 34.1224C32.425 34.1224 35.0288 33.0439 36.9485 31.1241C38.8683 29.2044 39.9468 26.6006 39.9468 23.8857C39.9468 21.1707 38.8683 18.567 36.9485 16.6472C35.0288 14.7275 32.425 13.649 29.7101 13.649Z" fill="#3c215c"/>
</svg>
