<svg width="59" height="59" viewBox="0 0 59 59" fill="none" xmlns="http://www.w3.org/2000/svg">
<path fill-rule="evenodd" clip-rule="evenodd" d="M29.7101 53.46C16.5184 53.46 5.82441 42.7661 5.82441 29.5743C5.82441 16.3827 16.5184 5.68867 29.7101 5.68867C42.9018 5.68867 53.5958 16.3827 53.5958 29.5743C53.5958 42.7661 42.9018 53.46 29.7101 53.46ZM0.706055 29.5743C0.706055 13.5559 13.6916 0.570312 29.7101 0.570312C45.7285 0.570312 58.7141 13.5559 58.7141 29.5743C58.7141 45.5928 45.7285 58.5784 29.7101 58.5784C13.6916 58.5784 0.706055 45.5928 0.706055 29.5743ZM30.2219 41.0992L39.435 35.7802C44.2121 33.0221 44.2121 26.1268 39.435 23.3687L30.2219 18.0495C25.4448 15.2914 19.4734 18.739 19.4734 24.2552V34.8933C19.4734 40.4096 25.4448 43.8573 30.2219 41.0992ZM36.8758 27.8013C38.2407 28.5893 38.2407 30.5595 36.8758 31.3473L27.6627 36.6667C26.2978 37.4546 24.5917 36.4695 24.5917 34.8933V24.2552C24.5917 22.6791 26.2978 21.6941 27.6627 22.4821L36.8758 27.8013Z" fill="#3c215c"/>
</svg>
