<svg width="30" height="31" viewBox="0 0 62 63" fill="none" xmlns="http://www.w3.org/2000/svg">
<path d="M31.1484 0.199219C44.0627 0.199219 53.4255 10.8535 53.4255 24.4135V29.5792C53.4255 30.5478 54.0712 31.5164 55.6855 33.1306L56.6541 34.0992C59.8827 37.3278 61.4969 39.5878 61.4969 42.8164C61.4969 44.4306 61.497 45.3992 60.5284 46.6906C59.2369 49.9192 56.0084 51.2106 51.4884 51.2106H45.0312C43.0941 58.6364 38.5741 62.8335 31.1484 62.8335C24.0455 62.8335 18.8798 58.6364 16.9427 50.8878V51.2106H10.8084C5.96552 51.2106 3.0598 49.5964 1.44552 46.6906C0.799805 45.3992 0.799805 44.4306 0.799805 42.8164C0.799805 39.5878 2.09123 37.6506 5.64266 34.0992L6.61123 33.1306C8.22552 31.5164 8.87123 30.5478 8.87123 29.9021V24.0906C8.87123 10.8535 18.2341 0.199219 31.1484 0.199219ZM39.2198 51.2106H23.077C24.6912 55.0849 27.2741 57.0221 31.1484 57.0221C35.0227 57.0221 37.6055 55.0849 39.2198 51.2106ZM31.1484 6.01065C21.4627 6.01065 14.6827 13.7592 14.6827 24.4135V29.5792C14.6827 32.4849 13.3912 34.4221 10.8084 37.3278L9.83981 37.9735C7.25695 40.5564 6.61123 41.8478 6.61123 42.8164V44.1078C7.25695 44.7535 8.22552 45.3992 10.8084 45.3992H51.4884C54.0712 45.3992 55.0398 44.7535 55.3627 44.1078L55.6855 42.8164C55.6855 41.8478 55.0398 40.5564 52.457 37.9735C52.1331 37.7597 51.8103 37.5444 51.4884 37.3278C48.9055 34.0992 47.6141 32.4849 47.6141 29.5792V24.4135C47.6141 13.7592 40.8341 6.3335 31.1484 6.3335V6.01065Z" fill="#3c215c"/>
</svg>
